<svg xmlns="http://www.w3.org/2000/svg" viewBox="0 0 1920 1080">
  <title>home</title>
  <g id="UI">
    <g>
      <ellipse cx="184.88" cy="797.11" rx="34.83" ry="34.45" style="fill: none;stroke: #fff;stroke-miterlimit: 10"/>
      <text transform="translate(178.52 813.83) scale(1.01 1)" style="font-size: 48.23508834838867px;fill: #fff;font-family: ArialRoundedMTBold, Arial Rounded MT Bold">i</text>
    </g>
  </g>
  <g id="Layer_13" data-name="Layer 13">
    <circle cx="609" cy="153" r="122" style="fill: #fff;opacity: 0.2"/>
    <circle cx="609" cy="153" r="95" style="fill: #fff;opacity: 0.2"/>
    <circle cx="609" cy="153" r="42" style="fill: #fff"/>
  </g>
  <g id="Layer_6" data-name="Layer 6">
    <path d="M1452.28,253a874.35,874.35,0,0,0-55.14,111.14c-20.34-46.65-39.38-80.8-39.38-80.8s-16.4,27-35,65.82A1038.86,1038.86,0,0,0,1276.82,253s-33.29,54.84-58.85,120.48c-20.08-45.83-38.68-79.2-38.68-79.2a875,875,0,0,0-54.61,109.83c-16.38-35.44-29.85-59.6-29.85-59.6s-15,24.66-32.54,60.7c-25.85-72.4-61.47-136.3-61.47-136.3a875.49,875.49,0,0,0-51,101.07c-17.34-38-32-64.26-32-64.26s-33.09,54.51-58.63,119.89c-17.71-39-32.87-66.18-32.87-66.18s-12.08,19.91-27.28,50.09c-25.78-71.51-60.7-134.14-60.7-134.14a874.76,874.76,0,0,0-54.26,109c-20.48-47.09-39.75-81.65-39.75-81.65a875.54,875.54,0,0,0-52,103.49c-22.15-72.7-64.79-142.94-64.79-142.94S409.19,475.7,464.55,544c-13.95,70.46-2,134,82.79,140.17,47.52,3.48,72.16-14.4,82.19-43.56q7,1.21,14.84,1.79c39.47,2.89,63.16-9,75.8-29.77A149.26,149.26,0,0,0,738.38,615l.58,0c3,45.23,26.24,79.54,87.4,84,53.11,3.89,77.65-18.9,85.13-54.3,2.08.24,4.2.43,6.37.59,43.89,3.21,68.27-11.8,79.63-37.08,1.1.1,2.2.2,3.33.28q3.82.29,7.46.37c5.35,40.83,29.41,71.05,86.55,75.22,51.05,3.74,75.7-17.18,84.18-50.25l.28,0c47.31,3.46,71.94-14.24,82-43.17a153.43,153.43,0,0,0,15.48,1.9c4.4.32,8.6.45,12.61.42,13.73,16.58,35.6,27.52,68.33,29.91,41.2,3,65.19-10,77.38-32.53a153.52,153.52,0,0,0,17.14,2.2C1649.68,607.08,1452.28,253,1452.28,253Z" style="fill: #252d05"/>
    <path d="M1392.28,252a874.35,874.35,0,0,0-55.14,111.14c-20.34-46.65-39.38-80.8-39.38-80.8s-16.4,27-35,65.82A1038.86,1038.86,0,0,0,1216.82,252s-33.29,54.84-58.85,120.48c-20.08-45.83-38.68-79.2-38.68-79.2a875,875,0,0,0-54.61,109.83c-16.38-35.44-29.85-59.6-29.85-59.6s-15,24.66-32.54,60.7c-25.85-72.4-61.47-136.3-61.47-136.3a875.49,875.49,0,0,0-51,101.07c-17.34-38-32-64.26-32-64.26s-33.09,54.51-58.63,119.89c-17.71-39-32.87-66.18-32.87-66.18s-12.08,19.91-27.28,50.09c-25.78-71.51-60.7-134.14-60.7-134.14a874.76,874.76,0,0,0-54.26,109c-20.48-47.09-39.75-81.65-39.75-81.65a875.54,875.54,0,0,0-52,103.49c-22.15-72.7-64.79-142.94-64.79-142.94S349.19,474.7,404.55,543c-13.95,70.46-2,134,82.79,140.17,47.52,3.48,72.16-14.4,82.19-43.56q7,1.21,14.84,1.79c39.47,2.89,63.16-9,75.8-29.77A149.26,149.26,0,0,0,678.38,614l.58,0c3,45.23,26.24,79.54,87.4,84,53.11,3.89,77.65-18.9,85.13-54.3,2.08.24,4.2.43,6.37.59,43.89,3.21,68.27-11.8,79.63-37.08,1.1.1,2.2.2,3.33.28q3.82.29,7.46.37c5.35,40.83,29.41,71.05,86.55,75.22,51.05,3.74,75.7-17.18,84.18-50.25l.28,0c47.31,3.46,71.94-14.24,82-43.17a153.43,153.43,0,0,0,15.48,1.9c4.4.32,8.6.45,12.61.42,13.73,16.58,35.6,27.52,68.33,29.91,41.2,3,65.19-10,77.38-32.53a153.52,153.52,0,0,0,17.14,2.2C1589.68,606.08,1392.28,252,1392.28,252Z" style="fill: none;stroke: #252d05;stroke-miterlimit: 10"/>
    <path d="M1461.51,506.13s-18.38,33-38.31,78.36c-25.55-65.49-58.72-120.13-58.72-120.13s-19.27,34.56-39.75,81.65a874.49,874.49,0,0,0-54.26-109s-34.92,62.64-60.7,134.14c-15.2-30.18-27.28-50.09-27.28-50.09s-15.16,27.19-32.87,66.19c-25.54-65.38-58.63-119.9-58.63-119.9s-14.66,26.3-32,64.27a875.43,875.43,0,0,0-51-101.07s-35.63,63.9-61.47,136.3C929,530.79,914,506.13,914,506.13s-13.47,24.16-29.85,59.61A874,874,0,0,0,829.56,455.9s-18.6,33.37-38.67,79.2C765.32,469.46,732,414.62,732,414.62a1041.42,1041.42,0,0,0-45.92,96.17c-18.62-38.81-35-65.83-35-65.83s-19,34.15-39.38,80.8a874.35,874.35,0,0,0-55.14-111.14,1044.9,1044.9,0,0,0-50,106.14c-14-27.11-24.52-44.43-24.52-44.43s-212.94,381.94,0,366.36c64.2-4.69,89.68-39.86,94-86.7,12.81,20.09,36.34,31.45,75.08,28.62,32.73-2.4,54.61-13.34,68.33-29.92q6,.06,12.61-.42a153.07,153.07,0,0,0,15.48-1.9c10.11,28.93,34.74,46.64,82,43.18l.28,0c8.48,33.06,33.13,54,84.18,50.25,57.14-4.18,81.2-34.39,86.55-75.22q3.63-.1,7.47-.37l3.32-.28c11.37,25.28,35.74,40.29,79.63,37.08q3.26-.24,6.37-.59c7.49,35.39,32,58.18,85.13,54.3,61.16-4.47,84.42-38.78,87.4-84l.58,0a149.49,149.49,0,0,0,18.22-2.41c12.63,20.8,36.32,32.65,75.79,29.76q7.83-.57,14.85-1.78c10,29.15,34.66,47,82.18,43.56C1658.92,831.34,1461.51,506.13,1461.51,506.13Z" style="fill: #394707"/>
  </g>
  <g id="Layer_4" data-name="Layer 4">
    <path d="M1129.47,614.43H819.75c-309.73,0-496.5,230.62-496.5,230.62h1290C1567.52,595.16,1129.47,614.43,1129.47,614.43Z" style="fill: none"/>
    <path d="M1129.47,637.76H819.75c-309.73,0-496.5,230.62-496.5,230.62h1290C1567.52,618.49,1129.47,637.76,1129.47,637.76Z" style="fill: #8baa41"/>
    <path d="M87,702.87l79,106.49,138.49,33.07,69.08,52.5,440.29-13.87s225.38-33.92,234.82-28.53,199.18,44.72,205.47,42.4S1366.3,925,1373.64,925s155.15-29.3,161.44-30.07,201.28-39.31,201.28-39.31L1772,763.87s-71.29-27.75-86-28.52" style="fill: #8baa41"/>
  </g>
  <g id="Layer_2" data-name="Layer 2">
    <path d="M-10,112s-.41,22.24,10.3,26.62" style="fill: none"/>
    <polygon points="1115.23 401.04 1138.14 433.15 1138.14 373.39 1115.23 373.39 1115.23 401.04" style="fill: #eaeaea"/>
    <rect x="790.28" y="533.1" width="171.19" height="104.75" style="fill: #fff"/>
    <rect x="790.77" y="531.72" width="168.58" height="105.79" style="fill: none"/>
    <rect x="790.77" y="457.05" width="168.58" height="74.68" style="fill: #eaeaea"/>
    <polygon points="774.27 561.61 791.13 532.07 959.04 532.07 959.04 561.61 774.27 561.61" style="fill: #6d9b6f"/>
    <polygon points="774.27 457.19 794.19 420.79 997.18 420.79 960.43 457.19 774.27 457.19" style="fill: #6d9b6f"/>
    <polygon points="959.62 637.85 1157.99 637.85 1157.99 457.13 1058.62 347.54 959.62 458.01 959.62 637.85" style="fill: #fff"/>
    <rect x="790.77" y="457.05" width="169.23" height="74.68" style="fill: #fff"/>
    <line x1="790.77" y1="531.58" x2="959.36" y2="531.58" style="fill: none;stroke: #fff;stroke-miterlimit: 10"/>
    <rect x="827.04" y="479.17" width="27.78" height="27.48" style="fill: #efcd06"/>
    <rect x="902.04" y="478.49" width="27.78" height="27.48" style="fill: #efcd06"/>
    <rect x="808.29" y="576.03" width="27.78" height="27.48" style="fill: #efcd06"/>
    <rect x="997.87" y="468.18" width="27.78" height="27.48" style="fill: #efcd06"/>
    <rect x="1045.09" y="468.18" width="27.78" height="27.48" style="fill: #efcd06"/>
    <rect x="1095.09" y="468.18" width="27.78" height="27.48" style="fill: #efcd06"/>
    <rect x="1002.04" y="580.84" width="27.78" height="27.48" style="fill: #efcd06"/>
    <rect x="1049.26" y="580.84" width="27.78" height="27.48" style="fill: #efcd06"/>
    <rect x="1099.26" y="580.84" width="27.78" height="27.48" style="fill: #efcd06"/>
    <rect x="858.29" y="576.03" width="27.78" height="27.48" style="fill: #efcd06"/>
    <rect x="907.36" y="587.16" width="22.92" height="50.83" style="fill: #456845"/>
    <polygon points="1158.04 519.7 1128.15 519.7 989.16 519.7 959.27 519.7 942.32 549.24 989.16 549.24 1128.15 549.24 1175 549.24 1158.04 519.7" style="fill: #6d9b6f"/>
    <ellipse cx="1058.98" cy="403.61" rx="10.42" ry="10.3" style="fill: #efcd06"/>
    <polygon points="959.68 457.98 1058.98 348.07 1161.75 462.1 1167.31 457.98 1058.29 337.77 952.04 454.55 959.68 457.98" style="fill: #6d9b6f"/>
  </g>
  <g id="Layer_3" data-name="Layer 3">
    <path d="M1096.94,1359.11S285.8,473.26,160.68,754.24,1096.94,1359.11,1096.94,1359.11Z" style="fill: #6a8933;opacity: 0.2"/>
    <path d="M2080.44,1138.09S1416.84,525,1363.27,674.76,2080.44,1138.09,2080.44,1138.09Z" style="fill: #6a8933;opacity: 0.2"/>
    <path d="M350.47,163.77s-451.19,819.61,0,786.2S350.47,163.77,350.47,163.77Z" style="fill: #647c2f"/>
    <g>
      <path d="M352,925.52V224.8c0-9.47.14-18.94,0-28.41v-1.24a1.5,1.5,0,0,0-3,0V895.88c0,9.46-.14,18.94,0,28.4,0,.42,0,.83,0,1.24a1.5,1.5,0,0,0,3,0Z" style="fill: #fff"/>
      <polyline points="392.08 255.06 350.47 287.36 316.24 255.06" style="fill: none;stroke: #fff;stroke-miterlimit: 10"/>
      <polyline points="454.75 431.7 350.16 512.89 264.11 431.7" style="fill: none;stroke: #fff;stroke-miterlimit: 10"/>
      <polyline points="527.42 682.67 350.03 820.38 204.07 682.67" style="fill: none;stroke: #fff;stroke-miterlimit: 10"/>
    </g>
    <path d="M1480.14,309.87s-269.83,484,0,464.26S1480.14,309.87,1480.14,309.87Z" style="fill: #6a8933"/>
    <path d="M1481.64,774.12V372.5c0-5.42.1-10.86,0-16.28v-.71a1.5,1.5,0,0,0-3,0V757.12c0,5.43-.1,10.86,0,16.28,0,.24,0,.48,0,.72a1.5,1.5,0,0,0,3,0Z" style="fill: #fff"/>
    <polyline points="1503.99 389.85 1480.14 408.36 1460.52 389.85" style="fill: none;stroke: #fff;stroke-miterlimit: 10"/>
    <polyline points="1539.91 491.08 1479.96 537.62 1430.64 491.08" style="fill: none;stroke: #fff;stroke-miterlimit: 10"/>
    <polyline points="1396.23 634.93 1479.89 713.85 1581.56 634.93" style="fill: none;stroke: #fff;stroke-miterlimit: 10"/>
  </g>
  <g id="Layer_11" data-name="Layer 11">
    <polyline points="1153 639 1301.66 695.32 1289.85 749.2 1326.28 792.05 1299.69 805.52 1266.22 757.77 1243.73 876 1073.25 805.52 927.54 811.64 791.68 639 1153 639" style="fill: #6a8933;opacity: 0.25"/>
    <polygon points="960 457 934.91 531.72 951.58 533.1 959 520 960 457" style="fill: #6d9b6f;opacity: 0.2"/>
    <polyline points="948.46 561.61 938.45 637.42 961.47 637.85 959.04 561.61 948.46 561.61" style="fill: #6d9b6f;opacity: 0.1"/>
    <polygon points="938.45 533.1 919.87 561.61 959 562 959 549.24 942 549 952 533 938.45 533.1" style="fill: #547754;opacity: 0.25"/>
  </g>
  <g id="Layer_19" data-name="Layer 19">
    <circle cx="821.89" cy="589.29" r="86.16" style="fill: #efcd06;opacity: 0.1"/>
    <circle cx="821.89" cy="589.29" r="60.92" style="fill: #efcd06;opacity: 0.2"/>
  </g>
</svg>
