<svg xmlns="http://www.w3.org/2000/svg" viewBox="0 0 1920 1080">
  <title>Home</title>
  <g id="Layer_10" data-name="Layer 10">
    <rect width="1920" height="1080" style="fill: #25564d"/>
    <path d="M1429,435.18S1614,393,1611,593c0,0-3,168.54-182,137.77Z" style="fill: none;stroke: #fff;stroke-miterlimit: 10;stroke-width: 3px"/>
    <path d="M1010,530V805.67s-3,41.59,200,43.41h0s181,3.65,200-43.76h0V530s0,42.85-200,43.76h0s-181,0-200-43.76" style="fill: #895531"/>
    <path d="M1185,681s79.11-71.59,71.56-105.3" style="fill: none;stroke: #683f23;stroke-miterlimit: 10;stroke-width: 4px"/>
    <text transform="translate(135 451.05)" style="font-size: 192px;fill: #fff;stroke: #fff;stroke-miterlimit: 10;stroke-width: 3px;font-family: Springfield">Bayhe<tspan x="338.68" y="0" style="letter-spacing: 0.00299072265625em">a</tspan><tspan x="393.02" y="0">d</tspan><tspan x="446.2" y="0" style="fill: #8baa41;stroke: #8baa41"> </tspan><tspan x="505.72" y="0">Tea</tspan></text>
    <text transform="translate(164 600.53)" style="font-size: 97px;fill: #fff;font-family: Springfield">1 r<tspan x="65.18" y="0" style="letter-spacing: 0.00498852287371134em">e</tspan><tspan x="86.81" y="0">d rose tea</tspan><tspan x="318.54" y="0" style="letter-spacing: -0.003996858891752577em">b</tspan><tspan x="341.43" y="0">ag</tspan><tspan x="0" y="116.4">2 spoonfuls of sugar</tspan><tspan x="0" y="232.8">1 shot moonshine</tspan></text>
  </g>
  <g id="Layer_14" data-name="Layer 14">
    <path d="M1010,530s-11-60,55-59,53,96,145,103C1210,574,1029,589,1010,530Z" style="fill: #895531"/>
    <path d="M1410,530s-9-47-72-48-82.89,88.56-179.94,73.28c0,0,28.94,33.72,129.94,15.72C1288,571,1395,567,1410,530Z" style="fill: #683f23"/>
    <path d="M1256.56,575.7s.79-159.55-87.88-169.7" style="fill: none;stroke: #fff;stroke-miterlimit: 10;stroke-width: 2px"/>
  </g>
  <g id="Layer_13" data-name="Layer 13">
    <circle cx="609" cy="153" r="122" style="fill: #fff;opacity: 0.2"/>
    <circle cx="609" cy="153" r="95" style="fill: #fff;opacity: 0.2"/>
    <circle cx="609" cy="153" r="42" style="fill: #fff"/>
  </g>
  <g id="Layer_11" data-name="Layer 11">
    <ellipse cx="1210" cy="366.38" rx="219" ry="58.36" style="fill: none;stroke: #fff;stroke-miterlimit: 10;stroke-width: 3px"/>
    <ellipse cx="1210" cy="366.38" rx="200" ry="47.38" style="fill: none;stroke: #fff;stroke-miterlimit: 10;stroke-width: 2px"/>
    <ellipse cx="1210" cy="801.38" rx="200" ry="47.38" style="fill: #895531"/>
    <ellipse cx="1210" cy="817.62" rx="219" ry="58.36" style="fill: none;stroke: #fff;stroke-miterlimit: 10;stroke-width: 3px"/>
    <line x1="991" y1="366.98" x2="991" y2="818.22" style="fill: none;stroke: #fff;stroke-miterlimit: 10;stroke-width: 3px"/>
    <line x1="1429" y1="818.22" x2="1429" y2="366.98" style="fill: none;stroke: #fff;stroke-miterlimit: 10;stroke-width: 3px"/>
    <path d="M1429,435.18S1614,393,1611,593c0,0-3,168.54-182,137.77Z" style="fill: none;stroke: #fff;stroke-miterlimit: 10;stroke-width: 3px"/>
    <path d="M1429,455.22s159.56-36.6,157,137c0,0-2.59,146.26-157,119.56Z" style="fill: none;stroke: #fff;stroke-miterlimit: 10;stroke-width: 3px"/>
  </g>
  <g id="Layer_15" data-name="Layer 15">
    <path d="M1253.92,670.5l22.13,14.7a45.61,45.61,0,0,1,20.27,40.86l-1.67,26.52a45.61,45.61,0,0,1-25.25,38l-23.8,11.81a45.59,45.59,0,0,1-45.52-2.87L1178,784.8a45.61,45.61,0,0,1-20.27-40.86l1.67-26.52a45.61,45.61,0,0,1,25.25-38l23.8-11.81A45.59,45.59,0,0,1,1253.92,670.5Z" style="fill: #683f23"/>
  </g>
  <g id="Layer_16" data-name="Layer 16">
    <path d="M1188.65,410.9s-52.83-18.13-84.62-2.38-21.42,55-21.42,55" style="fill: none;stroke: #c4c4c4;stroke-miterlimit: 10;stroke-width: 2px"/>
    <rect x="1064.57" y="459.21" width="62.99" height="62.99" transform="translate(-103.89 538.32) rotate(-26.39)" style="fill: #fff"/>
    <path d="M1123.19,370.32s-30.71-185.58-118.83-141.18S1093.89,257.59,1123.19,370.32Z" style="fill: #683f23"/>
    <path d="M1241.18,367.85s-20.13-104.18,35.19-98S1234.59,302.48,1241.18,367.85Z" style="fill: #683f23"/>
  </g>
  <g id="Layer_17" data-name="Layer 17">
    <path d="M990,828.5l282.18,251H1771.5l-342.22-267s22,47-160.1,63C1269.18,875.5,1079.06,898.5,990,828.5Z" style="fill: #1c3f38;opacity: 0.2"/>
  </g>
  <g id="Layer_18" data-name="Layer 18">
    <g>
      <path d="M1106.72,494.94s-3.22,17.56-23.22,22.56" style="fill: none;stroke: #589351;stroke-miterlimit: 10"/>
      <g>
        <polygon points="1111.03 494.61 1104.82 491.24 1103.7 484.09 1108.51 478.53 1115.64 478.76 1119.71 484.6 1117.66 491.65 1111.03 494.61" style="fill: #b73734"/>
        <g>
          <path d="M1103.6,484.23s-4.44,7.51,3.05,11.24,11-3.78,11-3.78Z" style="fill: #b73734"/>
          <line x1="1108.55" y1="478.56" x2="1112.59" y2="486.75" style="fill: none;stroke: #fff;stroke-miterlimit: 10;stroke-width: 0.5px"/>
          <path d="M1107.22,488.94l12.55-4.55s-3.29,8.54-9.69,12.1" style="fill: none;stroke: #fff;stroke-miterlimit: 10;stroke-width: 0.5px"/>
          <path d="M1103.56,484.09s6.66,4.88,3.13,11.51" style="fill: none;stroke: #fff;stroke-miterlimit: 10;stroke-width: 0.5px"/>
          <polyline points="1110 481.5 1114.22 481.45 1117.21 485.31" style="fill: none;stroke: #fff;stroke-miterlimit: 10;stroke-width: 0.5px"/>
        </g>
      </g>
      <path d="M1087.5,515.5s-8-14,3-15S1087.5,515.5,1087.5,515.5Z" style="fill: #589351"/>
    </g>
    <g>
      <text transform="matrix(0.89, -0.45, 0.45, 0.89, 1066.28, 490.01)" style="font-size: 17.638500213623047px;fill: #b73734;font-family: Springfield">R<tspan x="11.66" y="0" style="letter-spacing: 0.0049828853890943586em">e</tspan><tspan x="15.59" y="0">d Rose</tspan></text>
      <path d="M1073.54,491.79l38.21-19.35" style="fill: none;stroke: #b73734;stroke-miterlimit: 10;stroke-width: 0.25px"/>
    </g>
  </g>
</svg>
